<?xml version="1.0" encoding="utf-8"?>
<!-- Generator: Adobe Illustrator 20.1.0, SVG Export Plug-In . SVG Version: 6.00 Build 0)  -->
<svg version="1.1" id="Layer_1" xmlns="http://www.w3.org/2000/svg" xmlns:xlink="http://www.w3.org/1999/xlink" x="0px" y="0px"
	 viewBox="0 0 64 64" style="enable-background:new 0 0 64 64;" xml:space="preserve">
<style type="text/css">
	.st0{clip-path:url(#SVGID_2_);}
	.st1{clip-path:url(#SVGID_7_);}
	.st2{clip-path:url(#SVGID_8_);}
	.st3{clip-path:url(#SVGID_9_);}
	.st4{clip-path:url(#SVGID_10_);}
	.st5{fill:#A0A0A0;}
	.st6{fill:#EAEAEA;}
	.st7{opacity:6.000000e-02;}
	.st8{clip-path:url(#SVGID_12_);}
	.st9{clip-path:url(#SVGID_14_);}
	.st10{opacity:4.000000e-02;}
	.st11{clip-path:url(#SVGID_16_);}
	.st12{clip-path:url(#SVGID_18_);}
	.st13{opacity:0.1;}
	.st14{clip-path:url(#SVGID_23_);}
	.st15{clip-path:url(#SVGID_24_);}
	.st16{opacity:0.7;}
	.st17{fill:#383838;}
</style>
<g>
	<g>
		<defs>
			<rect id="SVGID_1_" x="4" y="3.3" width="56.8" height="56.8"/>
		</defs>
		<clipPath id="SVGID_2_">
			<use xlink:href="#SVGID_1_"  style="overflow:visible;"/>
		</clipPath>
		<g class="st0">
			<g>
				<defs>
					<rect id="SVGID_3_" x="4" y="3.3" width="56.8" height="56.8"/>
				</defs>
				<defs>
					<rect id="SVGID_4_" x="4" y="3.3" width="56.8" height="56.8"/>
				</defs>
				<defs>
					<rect id="SVGID_5_" x="4" y="3.3" width="56.8" height="56.8"/>
				</defs>
				<defs>
					<rect id="SVGID_6_" x="4" y="3.3" width="56.8" height="56.8"/>
				</defs>
				<clipPath id="SVGID_7_">
					<use xlink:href="#SVGID_3_"  style="overflow:visible;"/>
				</clipPath>
				<clipPath id="SVGID_8_" class="st1">
					<use xlink:href="#SVGID_4_"  style="overflow:visible;"/>
				</clipPath>
				<clipPath id="SVGID_9_" class="st2">
					<use xlink:href="#SVGID_5_"  style="overflow:visible;"/>
				</clipPath>
				<clipPath id="SVGID_10_" class="st3">
					<use xlink:href="#SVGID_6_"  style="overflow:visible;"/>
				</clipPath>
				<g class="st4">
					<g>
						<path class="st5" d="M58.5,32.4c0,14.4-11.7,26.1-26.1,26.1c-14.4,0-26.1-11.7-26.1-26.1S17.9,6.3,32.4,6.3
							C46.8,6.3,58.5,18,58.5,32.4"/>
					</g>
					<g>
						<path class="st6" d="M58.5,31.6c0,14.4-11.7,26.1-26.1,26.1c-14.4,0-26.1-11.7-26.1-26.1S17.9,5.5,32.4,5.5
							C46.8,5.5,58.5,17.2,58.5,31.6"/>
					</g>
				</g>
				<g class="st4">
					<g class="st7">
						<g>
							<defs>
								<rect id="SVGID_11_" x="9.6" y="8.9" width="45.5" height="45.5"/>
							</defs>
							<clipPath id="SVGID_12_">
								<use xlink:href="#SVGID_11_"  style="overflow:visible;"/>
							</clipPath>
							<path class="st8" d="M55.1,31.6c0,12.6-10.2,22.8-22.8,22.8S9.6,44.2,9.6,31.6S19.8,8.9,32.4,8.9S55.1,19.1,55.1,31.6"/>
						</g>
					</g>
					<g>
						<defs>
							<rect id="SVGID_13_" x="4" y="3.3" width="56.8" height="56.8"/>
						</defs>
						<clipPath id="SVGID_14_">
							<use xlink:href="#SVGID_13_"  style="overflow:visible;"/>
						</clipPath>
						<g class="st9">
							<g class="st10">
								<g>
									<defs>
										<rect id="SVGID_15_" x="14.9" y="14.2" width="34.9" height="34.9"/>
									</defs>
									<clipPath id="SVGID_16_">
										<use xlink:href="#SVGID_15_"  style="overflow:visible;"/>
									</clipPath>
									<path class="st11" d="M49.8,31.6c0,9.6-7.8,17.5-17.5,17.5s-17.5-7.8-17.5-17.5s7.8-17.5,17.5-17.5S49.8,22,49.8,31.6"/>
								</g>
							</g>
							<g>
								<defs>
									<rect id="SVGID_17_" x="4" y="3.3" width="56.8" height="56.8"/>
								</defs>
								<clipPath id="SVGID_18_">
									<use xlink:href="#SVGID_17_"  style="overflow:visible;"/>
								</clipPath>
								<g class="st12">
									<g class="st13">
										<g>
											<defs>
												<rect id="SVGID_19_" x="20.3" y="26.6" width="11.2" height="11"/>
											</defs>
											<clipPath id="SVGID_20_">
												<use xlink:href="#SVGID_19_"  style="overflow:visible;"/>
											</clipPath>
										</g>
									</g>
									<g>
										<defs>
											<rect id="SVGID_21_" x="4" y="3.3" width="56.8" height="56.8"/>
										</defs>
										<defs>
											<rect id="SVGID_22_" x="4" y="3.3" width="56.8" height="56.8"/>
										</defs>
										<clipPath id="SVGID_23_">
											<use xlink:href="#SVGID_21_"  style="overflow:visible;"/>
										</clipPath>
										<clipPath id="SVGID_24_" class="st14">
											<use xlink:href="#SVGID_22_"  style="overflow:visible;"/>
										</clipPath>
										<g class="st15">
											<g class="st13">
												<g>
													<defs>
														<rect id="SVGID_25_" x="34.3" y="26.6" width="11.2" height="11"/>
													</defs>
													<clipPath id="SVGID_26_">
														<use xlink:href="#SVGID_25_"  style="overflow:visible;"/>
													</clipPath>
												</g>
											</g>
											<g>
												<defs>
													<rect id="SVGID_27_" x="4" y="3.3" width="56.8" height="56.8"/>
												</defs>
												<clipPath id="SVGID_28_">
													<use xlink:href="#SVGID_27_"  style="overflow:visible;"/>
												</clipPath>
											</g>
										</g>
									</g>
								</g>
							</g>
						</g>
					</g>
				</g>
			</g>
		</g>
	</g>
</g>
<g>
	<g class="st16">
		<path class="st5" d="M36.1,20.9c-1.8,0-3.5,0.8-4.8,1.9c0.9,0.2,1.7,0.6,2.4,1c0.7-0.4,1.5-0.7,2.4-0.7c2.5,0,4.6,2,4.6,4.4V33
			c0,2.4-2.1,4.4-4.6,4.4c-2.5,0-4.6-2-4.6-4.4v-3.9c-0.6-0.7-1.4-1.1-2.3-1.1v5c0,3.6,3.1,6.6,6.9,6.6c3.8,0,6.9-3,6.9-6.6v-5.5
			C42.9,23.9,39.8,20.9,36.1,20.9z"/>
	</g>
	<g>
		<path class="st17" d="M36.1,20.4c-1.8,0-3.5,0.8-4.8,1.9c0.9,0.2,1.7,0.6,2.4,1c0.7-0.4,1.5-0.7,2.4-0.7c2.5,0,4.6,2,4.6,4.4v5.5
			c0,2.4-2.1,4.4-4.6,4.4c-2.5,0-4.6-2-4.6-4.4v-3.9c-0.6-0.7-1.4-1.1-2.3-1.1v5c0,3.6,3.1,6.6,6.9,6.6c3.8,0,6.9-3,6.9-6.6V27
			C42.9,23.4,39.8,20.4,36.1,20.4z"/>
	</g>
</g>
<g>
	<g class="st16">
		<path class="st5" d="M29.2,42.9c1.8,0,3.5-0.8,4.8-1.9c-0.9-0.2-1.7-0.6-2.4-1c-0.7,0.4-1.5,0.7-2.4,0.7c-2.5,0-4.6-2-4.6-4.4
			v-5.5c0-2.4,2.1-4.4,4.6-4.4s4.6,2,4.6,4.4v3.9c0.6,0.7,1.4,1.1,2.3,1.1v-5c0-3.6-3.1-6.6-6.9-6.6s-6.9,3-6.9,6.6v5.5
			C22.3,40,25.4,42.9,29.2,42.9z"/>
	</g>
	<g>
		<path class="st17" d="M29.2,42.4c1.8,0,3.5-0.8,4.8-1.9c-0.9-0.2-1.7-0.6-2.4-1c-0.7,0.4-1.5,0.7-2.4,0.7c-2.5,0-4.6-2-4.6-4.4
			v-5.5c0-2.4,2.1-4.4,4.6-4.4s4.6,2,4.6,4.4v3.9c0.6,0.7,1.4,1.1,2.3,1.1v-5c0-3.6-3.1-6.6-6.9-6.6s-6.9,3-6.9,6.6v5.5
			C22.3,39.5,25.4,42.4,29.2,42.4z"/>
	</g>
</g>
</svg>
