<?xml version="1.0" encoding="utf-8"?>
<!-- Generator: Adobe Illustrator 20.1.0, SVG Export Plug-In . SVG Version: 6.00 Build 0)  -->
<svg version="1.1"
	 id="Layer_1" xmlns:cc="http://creativecommons.org/ns#" xmlns:dc="http://purl.org/dc/elements/1.1/" xmlns:rdf="http://www.w3.org/1999/02/22-rdf-syntax-ns#"
	 xmlns="http://www.w3.org/2000/svg" xmlns:xlink="http://www.w3.org/1999/xlink" x="0px" y="0px" viewBox="0 0 24 24"
	 style="enable-background:new 0 0 24 24;" xml:space="preserve">
<style type="text/css">
	.st0{fill:#C0392B;}
	.st1{fill:#E74C3C;}
</style>
<g transform="translate(0 -1028.4)">
	<g>
		<path class="st0" d="M5,1030.4c-1.1,0-2,0.9-2,2v8v4v6c0,1.1,0.9,2,2,2h14c1.1,0,2-0.9,2-2v-6v-4v-4l-6-6H5z"/>
		<path class="st1" d="M5,1029.4c-1.1,0-2,0.9-2,2v8v4v6c0,1.1,0.9,2,2,2h14c1.1,0,2-0.9,2-2v-6v-4v-4l-6-6H5z"/>
		<path class="st0" d="M21,1035.4l-6-6v4c0,1.1,0.9,2,2,2H21z"/>
	</g>
</g>
</svg>
